<svg id="Characters" xmlns="http://www.w3.org/2000/svg" width="738.57" height="738.41" viewBox="0 0 738.57 738.41">
  <defs>
    <style>
      .cls-1 {
        fill: #fff;
        stroke: #000;
        stroke-miterlimit: 10;
      }
    </style>
  </defs>
  <title>compass_rot</title>
  <path class="cls-1" d="M97.17,382.26a21.06,21.06,0,0,0,3.68.22,24.4,24.4,0,0,0,4-.22c-7.28,15.91-14.33,31.18-21.25,47.16h-5c-2.85-6.77-6.1-15.08-9.16-22.94L59.08,429.42H52.6C46,413.65,35.75,389.53,32.15,382.26c1.23.22,6.05.22,7.27.22a39.87,39.87,0,0,0,5.12-.22c.7,2.46,5,14.8,14.22,36.22,2.51-5.82,5.42-12.49,8-18.83-3-7.64-5.6-14.17-7.19-17.39a51.56,51.56,0,0,0,5.83.22c1.22,0,5.69,0,6.91-.22a234.77,234.77,0,0,0,11.61,33.8C88.91,404.62,95,390.71,97.17,382.26Z" transform="translate(-31.27 -35.73)"/>
  <path class="cls-1" d="M747.86,423.66a189.14,189.14,0,0,0,21.31-1.58l.15.29c-.08.57-.15,3.24-.15,4a23.15,23.15,0,0,0,.15,2.59l-.15.22a37,37,0,0,0-4.32-.22H742.24c-2.52,0-6.12.22-6.12.22l-.07-.22a103.21,103.21,0,0,0,.86-14.4V396.88a105.33,105.33,0,0,0-.86-14.4l.14-.22s3.6.22,6,.22h21.89a39.32,39.32,0,0,0,4.32-.22l.15.22c-.09,1-.15,1.94-.15,2.52s.07,2.37.15,2.95l-.15.29s-10.94-.87-20.59-.87c-.51,1.73-.58,8.28-.58,9.51v5.25c8.5,0,12.82-.36,17.07-.72l.21.22a17.13,17.13,0,0,0-.21,2.66,18.06,18.06,0,0,0,.21,2.74l-.21.22c-5-.51-13.61-.72-17.07-.72v8C747.28,415.74,747.35,421.94,747.86,423.66Z" transform="translate(-31.27 -35.73)"/>
  <path class="cls-1" d="M408.91,762.48c0-3-2.88-5.83-6.26-7.56-4.13-2.11-9.7-4.8-13-9.15a12.49,12.49,0,0,1-2.24-7.77c0-7.64,7.42-12.46,15.56-12.46a33.11,33.11,0,0,1,14.69,3.24l.14.22a59.85,59.85,0,0,0-1.44,8.64l-2.16.07c-1.87-3.53-6.12-8.64-10.44-8.64a6.73,6.73,0,0,0-6.55,7c0,5.27,3.45,7.06,7.34,8.86,5.83,2.7,14.26,6.77,14.26,14.62,0,7.34-6.63,14.11-17.21,14.11a39.06,39.06,0,0,1-15.48-3.24l-.15-.22a72.16,72.16,0,0,0,1.44-8.78l1.88-.07c2.52,3.81,8.57,8.57,13,8.57S408.91,767.59,408.91,762.48Z" transform="translate(-31.27 -35.73)"/>
  <path class="cls-1" d="M379.55,36.48l.15-.22s2.64.22,4.32.22c1.31,0,3.52-.22,3.52-.22C395.61,46.85,406.07,59,415.05,68.5l.22,0V50.88a134.62,134.62,0,0,0-.94-14.4l.15-.22a35.29,35.29,0,0,0,3.6.22c1.6,0,3.52-.22,3.52-.22l.15.22a104.63,104.63,0,0,0-.72,14.4l-.43,32.26a27,27,0,0,0-3.46-.22c-1.17,0-2.84.11-4,.22-8.28-10.65-18-22.1-27.44-33h-.43L385,68.52a99.06,99.06,0,0,0,.43,14.4l-.14.22a23.09,23.09,0,0,0-3.17-.22,28.05,28.05,0,0,0-3.24.22l-.07-.22a140.72,140.72,0,0,0,1.15-14.4l.36-17.64A87,87,0,0,0,379.55,36.48Z" transform="translate(-31.27 -35.73)"/>
</svg>
