<svg id="Layer_1" data-name="Layer 1" xmlns="http://www.w3.org/2000/svg" viewBox="0 0 3632.36 626.61">
  <defs>
    <style>
      .cls-1 {
        fill: #fff;
      }

      .cls-1, .cls-2, .cls-3 {
        fill-rule: evenodd;
      }

      .cls-3, .cls-4, .cls-5 {
        fill: none;
      }

      .cls-4, .cls-5 {
        stroke: #000;
        stroke-linecap: round;
        stroke-miterlimit: 8;
      }

      .cls-4 {
        stroke-width: 7px;
      }

      .cls-5 {
        stroke-width: 3px;
      }
    </style>
  </defs>
  <title>uaftraffic-icons</title>
  <g>
    <path class="cls-1" d="M206.15,1048q0-153.24,0-306.48h193.6q0,153.24,0,306.48ZM313.3,885.64c1.61,1.81,2.56,3,3.64,4.06,4.26,4.17,8.13,8.9,13,12.27,5.5,3.86,11.85,6.54,17.87,9.66,3.76,2,6.45,1.06,8.4-2.6,1.67-3.11.8-5.36-3.05-7.57-4.53-2.6-9.08-5.17-13.67-7.64a36,36,0,0,1-14.93-14.47c-4.08-7.27-8.74-14.22-13.39-21.14-3.37-5-8.45-7.3-14.27-5.8a22.46,22.46,0,0,0-9.35,5.25c-8.63,8.16-16.91,16.7-25.26,25.14-1,1-2.15,2.26-2.32,3.53-1.57,11.34-3.19,22.68-4.12,34.08-.15,1.9,2.75,4.28,4.69,5.91.4.34,3.16-1.32,4.11-2.6a12.75,12.75,0,0,0,2.27-5.64c.77-5.55.92-11.19,1.8-16.72,1-6,2.87-11.74,8.41-15.29a22.48,22.48,0,0,1,4.22-1.62c.38,1.43,1.22,2.9,1.08,4.28-.75,7.78-1.67,15.54-2.65,23.29-1.39,11.11-3.14,22.18-4.25,33.31-1.17,11.82-3.59,23-9.6,33.55-3.93,6.85-6.57,14.48-9.47,21.88-1.89,4.8.48,9.59,5.18,11.55,5.39,2.25,9.12,1,11.5-4.37,4.54-10.25,9.28-20.44,13.16-30.94,3.49-9.42,9.52-18.18,8.42-29-.08-.82,1.11-1.76,1.72-2.64.68.66,1.69,1.19,2,2q1.94,5.13,3.5,10.38c4.85,16.23,9.6,32.48,14.48,48.69,1.54,5.13,6.17,7.62,10.91,6.2,6.17-1.86,8.38-5.24,6.73-11.09-4.71-16.68-9.74-33.27-14.34-50-3.55-12.91-7.12-25.85-9.73-39C308.21,903.88,309.43,895,313.3,885.64Zm-12.86-40.06c7.63,0,14.29-7,14.3-15.13,0-7.61-6.56-14.59-13.93-14.83-6.64-.22-14.95,8-15.15,15C285.46,837.84,293.06,845.53,300.44,845.58Z" transform="translate(-206.14 -580.33)"/>
    <path class="cls-2" d="M313.3,885.64c-3.87,9.36-5.09,18.24-3.36,27,2.61,13.12,6.18,26.06,9.73,39,4.6,16.71,9.63,33.3,14.34,50,1.65,5.85-.56,9.23-6.73,11.09-4.74,1.42-9.37-1.07-10.91-6.2-4.88-16.21-9.63-32.46-14.48-48.69q-1.58-5.25-3.5-10.38c-.3-.8-1.31-1.33-2-2-.61.88-1.8,1.82-1.72,2.64,1.1,10.8-4.93,19.56-8.42,29-3.88,10.5-8.62,20.69-13.16,30.94-2.38,5.36-6.11,6.62-11.5,4.37-4.7-2-7.07-6.75-5.18-11.55,2.9-7.4,5.54-15,9.47-21.88,6-10.51,8.43-21.73,9.6-33.55,1.11-11.13,2.86-22.2,4.25-33.31,1-7.75,1.9-15.51,2.65-23.29.14-1.38-.7-2.85-1.08-4.28a22.48,22.48,0,0,0-4.22,1.62c-5.54,3.55-7.45,9.28-8.41,15.29-.88,5.53-1,11.17-1.8,16.72a12.75,12.75,0,0,1-2.27,5.64c-.95,1.28-3.71,2.94-4.11,2.6-1.94-1.63-4.84-4-4.69-5.91.93-11.4,2.55-22.74,4.12-34.08.17-1.27,1.34-2.53,2.32-3.53,8.35-8.44,16.63-17,25.26-25.14a22.46,22.46,0,0,1,9.35-5.25c5.82-1.5,10.9.78,14.27,5.8,4.65,6.92,9.31,13.87,13.39,21.14a36,36,0,0,0,14.93,14.47c4.59,2.47,9.14,5,13.67,7.64,3.85,2.21,4.72,4.46,3.05,7.57-1.95,3.66-4.64,4.55-8.4,2.6-6-3.12-12.37-5.8-17.87-9.66-4.83-3.37-8.7-8.1-13-12.27C315.86,888.65,314.91,887.45,313.3,885.64Z" transform="translate(-206.14 -580.33)"/>
    <path class="cls-2" d="M300.44,845.58c-7.38-.05-15-7.74-14.78-15,.2-7,8.51-15.23,15.15-15,7.37.24,13.93,7.22,13.93,14.83C314.73,838.56,308.07,845.62,300.44,845.58Z" transform="translate(-206.14 -580.33)"/>
  </g>
  <g>
    <path class="cls-1" d="M3211.9,1206.94V580.33h626.6v626.61Zm513.58-342.12h-7.21c-28.14,0-56.27-.15-84.41,0-4.37,0-7-1.23-9.65-5-21-30.06-50-40.77-85.14-33-25,5.54-45.62,19.32-65.09,35.19-1.49,1.21-3.4,2.56-5.19,2.67q-15.52.93-31.09,1.25c-24.74.5-49.48.83-74.22,1.3a30.35,30.35,0,0,0-5.49.89c-6.42,1.29-11,.12-14.86-6.33-14.1-23.76-28.86-47.11-43.38-70.61-5.58-9-9.13-9.88-18.18-4.16a40.33,40.33,0,0,0-16.93,22.46q-9.1,28.54-17.39,57.36c-3.54,12.3-2.61,14.07,7.61,21.83,23.78,18,51.29,27.54,79.94,33.72,39.61,8.53,79.47,15.87,119.12,24.16,27.25,5.69,54.87,7.58,82.51,8.35,40.15,1.12,80.33,1.08,120.5,1.4,20.84.17,41.68-.16,62.52.16,5.28.08,6.16-1.89,6.12-6.52-.18-24.39-.09-48.77-.09-73.15Zm7.28,45.79c0,13.13.16,26.25-.09,39.37-.09,4.73,1,6.81,6.25,6.47,7-.45,14.15-.09,21.24-.11,9.57,0,15.18-5.16,15.28-14.87.22-22.08.08-44.16,0-66.24,0-5.8-2.78-9.76-8.7-10.07-9.34-.48-18.72-.13-28.07-.55-4.7-.22-6.15,1.36-6,6C3732.93,884,3732.76,897.28,3732.76,910.61Zm-72.19,105.7c14.42,1.59,27.3-11.92,27.34-26,0-14.36-9.78-27.36-26.83-27.51-14.49-.12-26.22,9.31-27,26.71C3633.36,1004.53,3645.44,1016.27,3660.57,1016.31Zm-312.85-67.62c1.12-10.08-7.06-19.07-19.24-20-10.23-.81-19.67,9.14-19.72,19.72-.06,11.28,8.87,20.89,19.74,20.36C3340.21,968.15,3348.86,958.74,3347.72,948.69Zm445.82-123.51h-1.61c-.59,1.39-1.51,2.73-1.69,4.17-1,7.95-2.32,15.92-2.57,23.91-.38,12.34-.14,24.71.27,37,0,1.61,2.49,4.13,4.13,4.4,1.32.22,3.33-2.13,4.59-3.69a6.66,6.66,0,0,0,1.25-4.07c-.34-16.57-.62-33.14-1.36-49.69C3796.37,833.19,3794.59,829.2,3793.54,825.18Zm-2.23,169,2-.24c.7-1.9,1.93-3.78,2-5.71,1-18.6,1.8-37.22,2.57-55.84a5.36,5.36,0,0,0-1.06-3.5c-1.43-1.55-3.53-4-4.88-3.71-1.66.33-4,3-4,4.77-.31,15.9-.48,31.83,0,47.73C3788.09,983.16,3790.13,988.63,3791.31,994.13Zm-6.43-73c6.88-2.22,12.57-3.45,17.69-5.87,6.16-2.91,6-8.3,0-11.71a34.72,34.72,0,0,0-9.18-3.54c-11.94-2.74-12-2.64-12,9.76,0,1.87-.42,3.88.12,5.58C3782.16,917.32,3783.63,919,3784.88,921.12Z" transform="translate(-206.14 -580.33)"/>
    <path class="cls-2" d="M3725.48,864.82v12c0,24.38-.09,48.76.09,73.15,0,4.63-.84,6.6-6.12,6.52-20.84-.32-41.68,0-62.52-.16-40.17-.32-80.35-.28-120.5-1.4-27.64-.77-55.26-2.66-82.51-8.35-39.65-8.29-79.51-15.63-119.12-24.16-28.65-6.18-56.16-15.68-79.94-33.72-10.22-7.76-11.15-9.53-7.61-21.83q8.31-28.79,17.39-57.36A40.33,40.33,0,0,1,3281.57,787c9-5.72,12.6-4.87,18.18,4.16,14.52,23.5,29.28,46.85,43.38,70.61,3.82,6.45,8.44,7.62,14.86,6.33a30.35,30.35,0,0,1,5.49-.89c24.74-.47,49.48-.8,74.22-1.3q15.56-.32,31.09-1.25c1.79-.11,3.7-1.46,5.19-2.67,19.47-15.87,40.13-29.65,65.09-35.19,35.16-7.8,64.16,2.91,85.14,33,2.63,3.77,5.28,5,9.65,5,28.14-.13,56.27,0,84.41,0Zm-201-5.84h0c0,5.19.26,10.41-.07,15.59-.36,5.56,1.54,8.57,7.41,8.95,10.3.67,20.57,2.16,30.86,2.34,20,.35,37.6-6.73,53.51-18.63,4.16-3.12,4.31-5.48,1.06-9.48-23-28.4-54.93-35.73-88.17-23.17-2,.76-4.12,4-4.35,6.32C3524.07,846.87,3524.47,852.94,3524.47,859Zm-59.73,53.72c0,.37,0,.73-.07,1.1-2.91,0-5.83-.1-8.74,0-9.54.37-19.08.66-28.59,1.38-1.93.15-3.74,2-5.6,3.11,1.28,1.91,2.14,4.62,3.93,5.55a31.64,31.64,0,0,0,10.58,3.28c12.93,1.56,25.89,2.94,38.88,4,17.78,1.42,35.58,2.47,53.38,3.67,13.45.9,26.88,2,40.34,2.64,13.7.62,27.42.86,41.13,1a18.27,18.27,0,0,0,7.69-2.16c1.46-.7,3.25-2.49,3.31-3.86.06-1.2-1.86-3-3.31-3.67a25.54,25.54,0,0,0-7.68-2.31c-23.56-3-47.08-6.51-70.72-8.71C3514.49,915.37,3489.59,914.31,3464.74,912.7Zm54.93-31.33V838.45c-15,6.55-27.66,14.86-41.18,26.25Z" transform="translate(-206.14 -580.33)"/>
    <path class="cls-2" d="M3732.76,910.61c0-13.33.17-26.66-.09-40-.1-4.65,1.35-6.23,6-6,9.35.42,18.73.07,28.07.55,5.92.31,8.69,4.27,8.7,10.07,0,22.08.17,44.16,0,66.24-.1,9.71-5.71,14.83-15.28,14.87-7.09,0-14.19-.34-21.24.11-5.22.34-6.34-1.74-6.25-6.47C3732.92,936.86,3732.76,923.74,3732.76,910.61Z" transform="translate(-206.14 -580.33)"/>
    <path class="cls-2" d="M3660.57,1016.31c-15.13,0-27.21-11.78-26.52-26.82.81-17.4,12.54-26.83,27-26.71,17.05.15,26.87,13.15,26.83,27.51C3687.87,1004.39,3675,1017.9,3660.57,1016.31Zm.28-11.52c8.76,0,15.69-6.68,15.61-15.07-.08-8-7.12-15.17-15-15.28-8.7-.12-16.21,7.23-16,15.65A15.4,15.4,0,0,0,3660.85,1004.79Z" transform="translate(-206.14 -580.33)"/>
    <path class="cls-2" d="M3347.72,948.69c1.14,10-7.51,19.46-19.22,20-10.87.53-19.8-9.08-19.74-20.36,0-10.58,9.49-20.53,19.72-19.72C3340.66,929.62,3348.84,938.61,3347.72,948.69ZM3328.16,960A11.43,11.43,0,0,0,3340,949.09a11,11,0,0,0-11.07-11.52c-6.74-.16-12.37,4.85-12.4,11.06C3316.51,954.46,3322.1,960,3328.16,960Z" transform="translate(-206.14 -580.33)"/>
    <path class="cls-2" d="M3793.54,825.18c1.05,4,2.83,8,3,12.07.74,16.55,1,33.12,1.36,49.69a6.66,6.66,0,0,1-1.25,4.07c-1.26,1.56-3.27,3.91-4.59,3.69-1.64-.27-4.08-2.79-4.13-4.4-.41-12.34-.65-24.71-.27-37,.25-8,1.57-16,2.57-23.91.18-1.44,1.1-2.78,1.69-4.17Z" transform="translate(-206.14 -580.33)"/>
    <path class="cls-2" d="M3791.31,994.13c-1.18-5.5-3.22-11-3.38-16.5-.47-15.9-.3-31.83,0-47.73,0-1.73,2.36-4.44,4-4.77,1.35-.27,3.45,2.16,4.88,3.71a5.36,5.36,0,0,1,1.06,3.5c-.77,18.62-1.59,37.24-2.57,55.84-.1,1.93-1.33,3.81-2,5.71Z" transform="translate(-206.14 -580.33)"/>
    <path class="cls-2" d="M3784.88,921.12c-1.25-2.08-2.72-3.8-3.34-5.78-.54-1.7-.12-3.71-.12-5.58,0-12.4,0-12.5,12-9.76a34.72,34.72,0,0,1,9.18,3.54c6,3.41,6.16,8.8,0,11.71C3797.45,917.67,3791.76,918.9,3784.88,921.12Z" transform="translate(-206.14 -580.33)"/>
    <path class="cls-1" d="M3524.47,859c0-6-.4-12.11.21-18.08.23-2.29,2.33-5.56,4.35-6.32,33.24-12.56,65.14-5.23,88.17,23.17,3.25,4,3.1,6.36-1.06,9.48-15.91,11.9-33.5,19-53.51,18.63-10.29-.18-20.56-1.67-30.86-2.34-5.87-.38-7.77-3.39-7.41-8.95.33-5.18.07-10.4.07-15.59Z" transform="translate(-206.14 -580.33)"/>
    <path class="cls-1" d="M3464.74,912.7c24.85,1.61,49.75,2.67,74.53,5,23.64,2.2,47.16,5.67,70.72,8.71a25.54,25.54,0,0,1,7.68,2.31c1.45.7,3.37,2.47,3.31,3.67-.06,1.37-1.85,3.16-3.31,3.86a18.27,18.27,0,0,1-7.69,2.16c-13.71-.11-27.43-.35-41.13-1-13.46-.61-26.89-1.74-40.34-2.64-17.8-1.2-35.6-2.25-53.38-3.67-13-1-26-2.42-38.88-4a31.64,31.64,0,0,1-10.58-3.28c-1.79-.93-2.65-3.64-3.93-5.55,1.86-1.08,3.67-3,5.6-3.11,9.51-.72,19-1,28.59-1.38,2.91-.12,5.83,0,8.74,0C3464.7,913.43,3464.72,913.07,3464.74,912.7Z" transform="translate(-206.14 -580.33)"/>
    <path class="cls-1" d="M3519.67,881.37l-41.18-16.67c13.52-11.39,26.23-19.7,41.18-26.25Z" transform="translate(-206.14 -580.33)"/>
    <path class="cls-1" d="M3660.85,1004.79a15.4,15.4,0,0,1-15.41-14.7c-.23-8.42,7.28-15.77,16-15.65,7.92.11,15,7.26,15,15.28C3676.54,998.11,3669.61,1004.8,3660.85,1004.79Z" transform="translate(-206.14 -580.33)"/>
    <path class="cls-1" d="M3328.16,960c-6.06-.08-11.65-5.58-11.62-11.41,0-6.21,5.66-11.22,12.4-11.06A11,11,0,0,1,3340,949.09,11.43,11.43,0,0,1,3328.16,960Z" transform="translate(-206.14 -580.33)"/>
  </g>
  <g>
    <path class="cls-3" d="M3539,883.62V837.77h53.69V886c-7.13,0-13.94-.14-19.73-5.8a12.51,12.51,0,0,0-16.47-1.09C3551.13,883.29,3545.33,884.19,3539,883.62Zm40.15-28.56c-.07-8.77-5.68-14-15-13.89-7.45.06-13.34,6.76-13.33,15.19,0,6.94,7.87,14.68,14.66,14.44C3572.63,870.54,3579.17,863,3579.11,855.06Z" transform="translate(-206.14 -580.33)"/>
    <path class="cls-2" d="M3539,883.62c6.37.57,12.17-.33,17.49-4.55a12.51,12.51,0,0,1,16.47,1.09c5.79,5.66,12.6,5.78,19.73,5.8v.78c-1.4-.12-2.81-.34-4.21-.34q-19.16,0-38.31,0c-3.73,0-7.45.22-11.17.34Z" transform="translate(-206.14 -580.33)"/>
    <path class="cls-3" d="M3539,886.74c3.72-.12,7.44-.33,11.17-.34q19.15-.06,38.31,0c1.4,0,2.81.22,4.21.34-.26.26-.51.74-.77.74q-26.09.06-52.16,0C3539.47,887.48,3539.21,887,3539,886.74Z" transform="translate(-206.14 -580.33)"/>
    <path class="cls-2" d="M3579.11,855.06c.06,8-6.48,15.48-13.7,15.74-6.79.24-14.66-7.5-14.66-14.44,0-8.43,5.88-15.13,13.33-15.19C3573.43,841.1,3579,846.29,3579.11,855.06Z" transform="translate(-206.14 -580.33)"/>
  </g>
  <g>
    <path class="cls-3" d="M2486.06,753.58h587V1060.8h-587Zm36.75,177.24a7.31,7.31,0,0,0-.61,1.66c0,6.67-.22,13.33,0,20a7.34,7.34,0,0,0,4.87,6.94c2.78,1.06,5.59,2.06,8.4,3,6.84,2.39,13.68,4.78,20.53,7.12,4,1.37,8,2.65,12.16,4,.38-1.5.71-2.74,1-4,2.37-10,4.56-20.13,7.17-30.1a62.91,62.91,0,0,1,4.89-13.05A29.61,29.61,0,0,1,2593.81,914c4.55-2.48,9.14-4.26,14.47-3.72,4.51.46,9.06.55,13.59.87,3,.21,5.94.5,8.9.8,4.5.46,9,1,13.49,1.43,4,.35,8,.26,12,.64a54.38,54.38,0,0,1,12.48,2.66,31.57,31.57,0,0,1,17.86,15.4c4.34,8,5.11,17,7.06,25.68,1.29,5.76,2.23,11.59,3.38,17.6H2884.6c4.42,0,5.08-.44,6.28-4.76,2-7.34,3.81-14.74,5.9-22s3.54-14.61,7.77-21c5.52-8.38,13.13-13.11,23.28-13.26,2.7,0,5.4.48,8.11.69,6.84.54,13.69,1.14,20.54,1.54,5.44.32,10.9.25,16.36.66a55.42,55.42,0,0,1,16.24,3.42,30.67,30.67,0,0,1,13.1,9.54c5.48,6.93,7.54,15.22,8.91,23.72.67,4.2.89,8.49,1.68,12.66.9,4.77,2.57,6.87,7.5,6.52,4.52-.31,9.08-.36,13.59-.87,2.93-.33,5.41-1.67,6.13-5,1-4.8,2.39-9.53,3.19-14.36s-.24-9.4-4.68-12.38a42,42,0,0,0-5.24-2.62,13.88,13.88,0,0,1-.27-8.55,10.85,10.85,0,0,0,0-4.29c-.42-3.58-.87-7.17-1.48-10.72-1.55-9-5-17.14-12-23.43a11,11,0,0,0-4.71-2.53,121.46,121.46,0,0,0-22.47-3.89c-2.45-.19-4.88-.57-7.32-.89-3.45-.45-6.88-1.06-10.35-1.36-4.78-.42-9.58-.58-14.37-.91-3.1-.21-6.2-.5-9.29-.8-4.76-.48-9.51-1-14.27-1.49-.64-.07-1.3-.1-1.94-.18-3.32-.44-6.64-.95-10-1.32-3.08-.34-6.19-.5-9.28-.82-7.33-.75-14.65-1.65-22-2.29-5.3-.46-10.63-.74-16-.82a13.37,13.37,0,0,1-11.43-6.27c-1.39-2-2.37-4.33-3.73-6.38-4.75-7.11-9.43-14.28-14.45-21.21A109.42,109.42,0,0,0,2838,827.77c-4.52-4.67-9.27-9.16-14.2-13.4-3.12-2.69-6.55-5.1-11-5.22-2.84-.08-5.67-.51-8.49-.84-3.85-.46-7.68-1-11.53-1.45-3.08-.34-6.18-.53-9.27-.84-4.63-.47-9.24-1.13-13.88-1.43-5.31-.35-10.63,0-16-.72-4.73-.64-9.58-.19-14.39-.79-5.13-.64-10.36-.4-15.55-.73-10.65-.68-21.35.11-32-.87-4.24-.39-8.54.25-12.81.51-11,.66-22.13-.21-33.2.83-7.89.74-15.84.06-23.79.72-10.11.83-20.3-.11-30.45.84-7.5.7-15.09-.35-22.61.89-4.61.76-8.35,2.51-10.58,6.89-4.38,8.62-7,17.89-9.23,27.15s-4.76,18.54-5,28.19c-.06,2.31-.53,4.62-.82,6.92-.47,3.71-1.09,7.41-1.39,11.13-.32,3.87-.31,7.76-.66,11.65-.72,8-.65,16.11-1,24.17-.14,3.06-.55,6.11-.86,9.45Zm430.33,9.7c-2.94.38-5.92.57-8.82,1.18a41.93,41.93,0,0,0-16.5,7.44,39.56,39.56,0,0,0-10.31,12,37.47,37.47,0,0,0-5,15.71,42.63,42.63,0,0,0,2.52,18.72c4.08,11.38,11.82,18.92,23.12,23,5.47,2,11.09,2.36,16.83,2.33a36.64,36.64,0,0,0,20.5-6.35c8.32-5.57,13.52-13.49,16.1-23.12,1.21-4.52,2.18-9.15,1.51-13.82-1.4-9.72-5.17-18.32-12.34-25.31C2973,944.79,2964.06,940.58,2953.14,940.52Zm-321.86,80.33a35.48,35.48,0,0,0,13.38-1.8,40.09,40.09,0,0,0,16.53-10.63c6.76-7.11,9.91-15.67,10.56-25.24.38-5.63-1-11-2.93-16.3a39.09,39.09,0,0,0-16.69-20.41c-7.6-4.64-15.9-7-25.12-5.74a41.17,41.17,0,0,0-17.32,6.37,40.08,40.08,0,0,0-14.21,15.75c-2.67,5.46-4.52,11.22-4.48,17.51a46.2,46.2,0,0,0,3.35,17,35.31,35.31,0,0,0,16.7,18.81A39.49,39.49,0,0,0,2631.28,1020.85Zm-96.82-166.09c-3-.3-5.45-.46-7.83-.8-4.77-.68-7.93.88-10.31,5.21a7.27,7.27,0,0,0-.53,1c-1.05,3-2.16,6.08-3.12,9.15a61.18,61.18,0,0,0-3.13,19.81c.17,7.27-.66,14.58.79,21.8a31.92,31.92,0,0,0,1.26,5.63,6.93,6.93,0,0,0,6.92,4.73c3.13,0,6.26,0,9.39,0a17.84,17.84,0,0,0,2.56-.46c.09-1.35.22-2.61.24-3.87.06-3.65-.07-7.31.17-11,.33-5,1.05-10,1.4-15,.4-6,.59-11.92.87-17.88a3.36,3.36,0,0,1,0-.78C2534.79,866.5,2533.08,860.49,2534.46,854.76ZM2682.86,968l.62-.23c-.49-2.89-.92-5.8-1.5-8.67-.6-3-1.52-6-2-9.06a39.41,39.41,0,0,0-4.47-12.77,21.12,21.12,0,0,0-11.72-10.2,45.07,45.07,0,0,0-13.63-2.78c-4.51-.17-9-1-13.49-1.41-4.13-.37-8.27-.58-12.41-.87-.77,0-1.54-.18-2.32-.21-4.93-.18-10-1.07-14.78-.36-11.34,1.71-17.49,8.15-20.73,19-1.91,6.43-3.53,12.95-5.24,19.44-.48,1.83-.81,3.7-1.21,5.54a39,39,0,0,0,4.41-7.32A54.33,54.33,0,0,1,2593,945.7c9.91-10.71,22.45-15.45,36.83-15.75a56.91,56.91,0,0,1,10.08.65,50.84,50.84,0,0,1,15.21,4.33,46.19,46.19,0,0,1,17.8,14.77c2.44,3.48,5.08,6.87,6.52,11A75.55,75.55,0,0,0,2682.86,968ZM3004,975.39c1.79-1,1.62-1.93,1.34-3-1.28-5.13-2.37-10.3-3.68-15.42s-2.44-10-4.17-14.9c-2.87-8.08-9.42-12.35-17.28-14.28-5.09-1.26-10.5-1.3-15.78-1.76-4.38-.38-8.79-.5-13.18-.85-5.15-.42-10.29-1.13-15.44-1.38a46.76,46.76,0,0,0-8.49.69A20.33,20.33,0,0,0,2911.83,935c-3.93,6.8-5.65,14.43-8,21.83-.09.29.14.68.29,1.26,2.21-3,4.11-5.91,6.4-8.52,6-6.82,12.84-12.5,21.32-16a43.42,43.42,0,0,1,13-3.46,62.65,62.65,0,0,1,28.26,3.83,44.07,44.07,0,0,1,13.33,7.91c8.44,7.48,13.53,16.94,16.07,27.86C3003,971.45,3003.5,973.27,3004,975.39Z" transform="translate(-206.14 -580.33)"/>
    <path class="cls-2" d="M2522.81,930.82h16.41c.31-3.34.72-6.39.86-9.45.36-8.06.29-16.15,1-24.17.35-3.89.34-7.78.66-11.65.3-3.72.92-7.42,1.39-11.13.29-2.3.76-4.61.82-6.92.25-9.65,2.77-18.94,5-28.19s4.85-18.53,9.23-27.15c2.23-4.38,6-6.13,10.58-6.89,7.52-1.24,15.11-.19,22.61-.89,10.15-1,20.34,0,30.45-.84,7.95-.66,15.9,0,23.79-.72,11.07-1,22.16-.17,33.2-.83,4.27-.26,8.57-.9,12.81-.51,10.67,1,21.37.19,32,.87,5.19.33,10.42.09,15.55.73,4.81.6,9.66.15,14.39.79,5.33.73,10.65.37,16,.72,4.64.3,9.25,1,13.88,1.43,3.09.31,6.19.5,9.27.84,3.85.43,7.68,1,11.53,1.45,2.82.33,5.65.76,8.49.84,4.49.12,7.92,2.53,11,5.22,4.93,4.24,9.68,8.73,14.2,13.4A109.42,109.42,0,0,1,2848,839.66c5,6.93,9.7,14.1,14.45,21.21,1.36,2,2.34,4.35,3.73,6.38a13.37,13.37,0,0,0,11.43,6.27c5.32.08,10.65.36,16,.82,7.34.64,14.66,1.54,22,2.29,3.09.32,6.2.48,9.28.82,3.33.37,6.65.88,10,1.32.64.08,1.3.11,1.94.18,4.76.49,9.51,1,14.27,1.49,3.09.3,6.19.59,9.29.8,4.79.33,9.59.49,14.37.91,3.47.3,6.9.91,10.35,1.36,2.44.32,4.87.7,7.32.89a121.46,121.46,0,0,1,22.47,3.89,11,11,0,0,1,4.71,2.53c7,6.29,10.45,14.38,12,23.43.61,3.55,1.06,7.14,1.48,10.72a10.85,10.85,0,0,1,0,4.29,13.88,13.88,0,0,0,.27,8.55,42,42,0,0,1,5.24,2.62c4.44,3,5.49,7.5,4.68,12.38s-2.16,9.56-3.19,14.36c-.72,3.35-3.2,4.69-6.13,5-4.51.51-9.07.56-13.59.87-4.93.35-6.6-1.75-7.5-6.52-.79-4.17-1-8.46-1.68-12.66-1.37-8.5-3.43-16.79-8.91-23.72a30.67,30.67,0,0,0-13.1-9.54,55.42,55.42,0,0,0-16.24-3.42c-5.46-.41-10.92-.34-16.36-.66-6.85-.4-13.7-1-20.54-1.54-2.71-.21-5.41-.73-8.11-.69-10.15.15-17.76,4.88-23.28,13.26-4.23,6.41-5.72,13.83-7.77,21s-3.88,14.71-5.9,22c-1.2,4.32-1.86,4.76-6.28,4.76H2697.08c-1.15-6-2.09-11.84-3.38-17.6-1.95-8.66-2.72-17.67-7.06-25.68a31.57,31.57,0,0,0-17.86-15.4,54.38,54.38,0,0,0-12.48-2.66c-4-.38-8-.29-12-.64-4.5-.41-9-1-13.49-1.43-3-.3-5.93-.59-8.9-.8-4.53-.32-9.08-.41-13.59-.87-5.33-.54-9.92,1.24-14.47,3.72a29.61,29.61,0,0,0-12.58,12.39,62.91,62.91,0,0,0-4.89,13.05c-2.61,10-4.8,20.06-7.17,30.1-.29,1.25-.62,2.49-1,4-4.14-1.35-8.16-2.63-12.16-4-6.85-2.34-13.69-4.73-20.53-7.12-2.81-1-5.62-2-8.4-3a7.34,7.34,0,0,1-4.87-6.94c-.23-6.66-.05-13.32,0-20A7.31,7.31,0,0,1,2522.81,930.82Zm174-113.4c-4.63-.37-9.11-.83-13.61-1.06-7.13-.38-14.27.15-21.44-.68-6.81-.8-13.73-.07-20.63-.78-7.87-.81-15.84.24-23.77-.83-3.85-.52-7.82,0-11.73-.12-3.49-.1-5.66,1.71-7,4.65s-2.46,6-3.59,9c-1.59,4.23-2.79,8.64-4.74,12.7a12.31,12.31,0,0,0,.13,11.17,14.23,14.23,0,0,0,12.47,8.63c4,.31,8,.27,12,.65,6.71.62,13.48.3,20.24.81,9.59.72,19.23.68,28.85,1a3.75,3.75,0,0,1,1.17.05c3,1.16,6.19.7,9.28.64,4.13-.06,7.61-1.34,9.25-5.7s3.72-8.55,5.16-13c2.77-8.46,5.23-17,7.79-25.56A7.62,7.62,0,0,0,2696.78,817.42Zm44.89,3.55c-.32,5.88-.63,11.3-.91,16.72-.06,1.18,0,2.36-.09,3.52-.45,4.75-1,9.5-1.44,14.24-.25,2.44-.55,4.88-.69,7.32-.12,1.91,0,3.82,0,6,3.1,0,5.84-.21,8.54,0,4.89.46,8.87-1.43,12.48-4.37s7.69-3.32,12.09-2.22c3.81,1,6.67,3.4,9.52,5.85a7.78,7.78,0,0,0,4.8,2.28c2.71.14,5.4.57,8.1.71,6.62.33,13.23.66,19.85.8,4.41.09,6.9-2.27,7.62-6.69a24,24,0,0,1,2.72-7.94h2.56c.75,5.09,1.48,10,2.27,15.34,6.67-.27,13.1,1.72,19.85.55-1.2-3.7-2.31-7.07-4.39-10.15-2.88-4.31-5.29-8.92-8-13.35-4.72-7.74-9.45-15.48-14.28-23.15a11.08,11.08,0,0,0-10.07-5.51c-22.44.07-44.89,0-67.33,0Zm253.09,75.66,9.58,15.14a53.36,53.36,0,0,0,7.37,9,9.16,9.16,0,0,0,7,2.82c3.52,0,7,0,10.55,0a21.11,21.11,0,0,0,2.59-.4c-2.33-6.71-4.51-13.16-6.82-19.57-1.12-3.11-3.62-4.49-6.8-5-7.1-1.18-14.16-2.51-21.44-3.81Z" transform="translate(-206.14 -580.33)"/>
    <path class="cls-2" d="M2953.14,940.52c10.92.06,19.88,4.27,27.57,11.78,7.17,7,10.94,15.59,12.34,25.31.67,4.67-.3,9.3-1.51,13.82-2.58,9.63-7.78,17.55-16.1,23.12a36.64,36.64,0,0,1-20.5,6.35c-5.74,0-11.36-.36-16.83-2.33-11.3-4.07-19-11.61-23.12-23a42.63,42.63,0,0,1-2.52-18.72,37.47,37.47,0,0,1,5-15.71,39.56,39.56,0,0,1,10.31-12,41.93,41.93,0,0,1,16.5-7.44C2947.22,941.09,2950.2,940.9,2953.14,940.52Zm28.23,42.77c-.08-20.47-11.94-31.33-29.12-31.13-16.5.2-29.08,11.44-29.2,29.08-.11,16.85,14.26,29.1,29.8,29.32C2966.29,1010.76,2981.81,998.41,2981.37,983.29Z" transform="translate(-206.14 -580.33)"/>
    <path class="cls-2" d="M2631.28,1020.85a39.49,39.49,0,0,1-20.23-4.66,35.31,35.31,0,0,1-16.7-18.81,46.2,46.2,0,0,1-3.35-17c0-6.29,1.81-12.05,4.48-17.51a40.08,40.08,0,0,1,14.21-15.75,41.17,41.17,0,0,1,17.32-6.37c9.22-1.27,17.52,1.1,25.12,5.74a39.09,39.09,0,0,1,16.69,20.41c1.93,5.3,3.31,10.67,2.93,16.3-.65,9.57-3.8,18.13-10.56,25.24a40.09,40.09,0,0,1-16.53,10.63A35.48,35.48,0,0,1,2631.28,1020.85Zm-.52-10.23c16.88-.5,30-13,29.91-29.52-.07-17.3-13.33-29.08-29.29-29-15.61.1-29.17,11.09-29.35,28C2601.84,997.81,2615.16,1009.86,2630.76,1010.62Z" transform="translate(-206.14 -580.33)"/>
    <path class="cls-2" d="M2534.46,854.76c-1.38,5.73.33,11.74-1.29,17.56a3.36,3.36,0,0,0,0,.78c-.28,6-.47,11.93-.87,17.88-.35,5-1.07,10-1.4,15-.24,3.64-.11,7.3-.17,11,0,1.26-.15,2.52-.24,3.87a17.84,17.84,0,0,1-2.56.46c-3.13.05-6.26,0-9.39,0a6.93,6.93,0,0,1-6.92-4.73,31.92,31.92,0,0,1-1.26-5.63c-1.45-7.22-.62-14.53-.79-21.8a61.18,61.18,0,0,1,3.13-19.81c1-3.07,2.07-6.11,3.12-9.15a7.27,7.27,0,0,1,.53-1c2.38-4.33,5.54-5.89,10.31-5.21C2529,854.3,2531.42,854.46,2534.46,854.76Z" transform="translate(-206.14 -580.33)"/>
    <path class="cls-2" d="M2682.86,968a75.55,75.55,0,0,1-3.4-7.31c-1.44-4.14-4.08-7.53-6.52-11a46.19,46.19,0,0,0-17.8-14.77,50.84,50.84,0,0,0-15.21-4.33,56.91,56.91,0,0,0-10.08-.65c-14.38.3-26.92,5-36.83,15.75a54.33,54.33,0,0,0-8.62,12.44,39,39,0,0,1-4.41,7.32c.4-1.84.73-3.71,1.21-5.54,1.71-6.49,3.33-13,5.24-19.44,3.24-10.87,9.39-17.31,20.73-19,4.8-.71,9.85.18,14.78.36.78,0,1.55.16,2.32.21,4.14.29,8.28.5,12.41.87,4.5.42,9,1.24,13.49,1.41a45.07,45.07,0,0,1,13.63,2.78,21.12,21.12,0,0,1,11.72,10.2,39.41,39.41,0,0,1,4.47,12.77c.47,3.05,1.39,6,2,9.06.58,2.87,1,5.78,1.5,8.67Z" transform="translate(-206.14 -580.33)"/>
    <path class="cls-2" d="M3004,975.39c-.53-2.12-1-3.94-1.45-5.77-2.54-10.92-7.63-20.38-16.07-27.86a44.07,44.07,0,0,0-13.33-7.91,62.65,62.65,0,0,0-28.26-3.83,43.42,43.42,0,0,0-13,3.46c-8.48,3.54-15.35,9.22-21.32,16-2.29,2.61-4.19,5.55-6.4,8.52-.15-.58-.38-1-.29-1.26,2.31-7.4,4-15,8-21.83a20.33,20.33,0,0,1,15.52-10.51,46.76,46.76,0,0,1,8.49-.69c5.15.25,10.29,1,15.44,1.38,4.39.35,8.8.47,13.18.85,5.28.46,10.69.5,15.78,1.76,7.86,1.93,14.41,6.2,17.28,14.28,1.73,4.85,2.9,9.91,4.17,14.9s2.4,10.29,3.68,15.42C3005.65,973.46,3005.82,974.36,3004,975.39Z" transform="translate(-206.14 -580.33)"/>
    <path class="cls-3" d="M2696.78,817.42a7.62,7.62,0,0,1-.12,1.59c-2.56,8.53-5,17.1-7.79,25.56-1.44,4.41-3.53,8.61-5.16,13s-5.12,5.64-9.25,5.7c-3.09.06-6.25.52-9.28-.64a3.75,3.75,0,0,0-1.17-.05c-9.62-.29-19.26-.25-28.85-1-6.76-.51-13.53-.19-20.24-.81-4-.38-8-.34-12-.65a14.23,14.23,0,0,1-12.47-8.63,12.31,12.31,0,0,1-.13-11.17c1.95-4.06,3.15-8.47,4.74-12.7,1.13-3,2.26-6.07,3.59-9s3.49-4.75,7-4.65c3.91.11,7.88-.4,11.73.12,7.93,1.07,15.9,0,23.77.83,6.9.71,13.82,0,20.63.78,7.17.83,14.31.3,21.44.68C2687.67,816.59,2692.15,817.05,2696.78,817.42Z" transform="translate(-206.14 -580.33)"/>
    <path class="cls-3" d="M2741.67,821h3.18c22.44,0,44.89.06,67.33,0a11.08,11.08,0,0,1,10.07,5.51c4.83,7.67,9.56,15.41,14.28,23.15,2.7,4.43,5.11,9,8,13.35,2.08,3.08,3.19,6.45,4.39,10.15-6.75,1.17-13.18-.82-19.85-.55-.79-5.32-1.52-10.25-2.27-15.34h-2.56a24,24,0,0,0-2.72,7.94c-.72,4.42-3.21,6.78-7.62,6.69-6.62-.14-13.23-.47-19.85-.8-2.7-.14-5.39-.57-8.1-.71a7.78,7.78,0,0,1-4.8-2.28c-2.85-2.45-5.71-4.89-9.52-5.85-4.4-1.1-8.43-.77-12.09,2.22s-7.59,4.83-12.48,4.37c-2.7-.25-5.44,0-8.54,0,0-2.18-.09-4.09,0-6,.14-2.44.44-4.88.69-7.32.48-4.74,1-9.49,1.44-14.24.12-1.16,0-2.34.09-3.52C2741,832.27,2741.35,826.85,2741.67,821Zm42.23,19.67a12.07,12.07,0,0,0,0-2.07c-.6-3.67-1.72-7.23-4.93-9.37-4.41-2.94-9.45-3.49-14.56-2.39-7.89,1.7-12.12,11.89-9.82,19.37,1.89,6.1,6.5,9.59,12.63,10.79a11.75,11.75,0,0,0,9.64-2.07C2781.33,851.41,2784.25,846.93,2783.9,840.64Z" transform="translate(-206.14 -580.33)"/>
    <path class="cls-3" d="M2994.76,896.63l2-1.87c7.28,1.3,14.34,2.63,21.44,3.81,3.18.53,5.68,1.91,6.8,5,2.31,6.41,4.49,12.86,6.82,19.57a21.11,21.11,0,0,1-2.59.4c-3.51,0-7,0-10.55,0a9.16,9.16,0,0,1-7-2.82,53.36,53.36,0,0,1-7.37-9Z" transform="translate(-206.14 -580.33)"/>
    <path class="cls-3" d="M2981.37,983.29c.44,15.12-15.08,27.47-28.52,27.27-15.54-.22-29.91-12.47-29.8-29.32.12-17.64,12.7-28.88,29.2-29.08C2969.43,952,2981.29,962.82,2981.37,983.29Z" transform="translate(-206.14 -580.33)"/>
    <path class="cls-3" d="M2630.76,1010.62c-15.6-.76-28.92-12.81-28.73-30.54.18-16.87,13.74-27.86,29.35-28,16-.1,29.22,11.68,29.29,29C2660.74,997.61,2647.64,1010.12,2630.76,1010.62Z" transform="translate(-206.14 -580.33)"/>
    <path class="cls-2" d="M2783.9,840.64c.35,6.29-2.57,10.77-7.06,14.26a11.75,11.75,0,0,1-9.64,2.07c-6.13-1.2-10.74-4.69-12.63-10.79-2.3-7.48,1.93-17.67,9.82-19.37,5.11-1.1,10.15-.55,14.56,2.39,3.21,2.14,4.33,5.7,4.93,9.37A12.07,12.07,0,0,1,2783.9,840.64Z" transform="translate(-206.14 -580.33)"/>
  </g>
  <g>
    <path class="cls-1" d="M1935.19,1054.81V747.61h339.27v307.2Zm70.63-163.35c6.62,0,12.6,0,18.58,0,11.64,0,22.83,2.31,32.22,9.24A255.89,255.89,0,0,1,2082.77,923c7,6.83,14.08,11.19,24.49,10.31,5.71-.48,9-2.13,11.83-6.9,11-18.59,27.55-29.49,48.73-33.36,4.74-.87,9.57-1.25,14.31-2.13,1-.18,2.59-1.91,2.42-2.36-3.38-8.86-6.59-17.82-10.66-26.36-2.57-5.37-7.9-6.66-13.5-5.09a7.33,7.33,0,0,1-8.39-2.59c-2.2-2.85-3.75-6.2-5.48-9.39-2.39-4.42-4.66-9.22-10.69-8.9-7.81.42-15.64,1-23.36,2.15-11.07,1.68-14,.43-19.67-9.42a173.5,173.5,0,0,0-11-17.55c-4.63-6.16-12.42-6.68-17.81-1.22-9.61,9.75-19,19.73-28.11,30a20.2,20.2,0,0,0-4.61,10c-1.08,7.52,4,12,9.7,15.67,5.14,3.32,10.57,6.22,15.88,9.28,3.62,2.08,7.4,3.92,10.87,6.22,3.22,2.14,4.08,5.58,2.61,8.55-1.73,3.5-4.89,2.43-7.18,1.47a133,133,0,0,1-17.44-8.58c-5.81-3.53-11.2-6.41-18.55-5-5.51,1.08-11.41.23-17.13.19-2.87,0-4.37,1.13-4.22,4.22S2005.82,888.19,2005.82,891.46ZM2213.67,904c-3-.7-5.58-1.29-8.16-1.94-12.71-3.2-25.63-4-38.34-1C2146.29,906,2130.65,917.88,2122,938c-1,2.36-2.49,3.39-5.07,3.35-5.62-.09-11.23-.09-16.85.06-8.21.22-14.78-2.83-20.52-8.75a268.81,268.81,0,0,0-20.59-19.2c-8.61-7.17-18.13-12.82-29.84-13.32-4-.17-8.07-.51-12.11-.64q-17.79-.57-35.59-1c-2.28-.06-3.46,1-3.91,3.41-1.31,7,.72,11.95,6.81,15.63,2.23,1.35,4.87,2.21,6.74,3.93,2.79,2.56,5.2,2.13,8.49,1,21.72-7.52,41.1-2.92,58.17,12.08,10.29,9,15.42,20.87,17.29,34.15.6,4.27,2.23,5.47,6.49,5.39,14.89-.28,29.78-.19,44.66,0,3.43,0,4.54-.9,5-4.51,2.92-23.91,17.69-43.41,42.75-48.28,15.77-3.06,30.53.58,44.73,7.36,5.51,2.63,9,.8,9.79-5.49a97.12,97.12,0,0,0,.43-11.33,36.62,36.62,0,0,0-9.64-25.75c-4.08-4.55-9.05-7.47-15.23-7.91a6.64,6.64,0,0,0-7.35,6c-.4,3.22,1.52,5.63,5.27,6.62a25.81,25.81,0,0,0,2.66.66C2209.07,892.07,2213.6,897.23,2213.67,904Zm-67.62,72.05c-1.17,22.68,18.29,40.78,42,41.09,20,.25,40.75-19.76,40.78-40.28,0-23.95-17.2-42.16-39.83-42.62C2163,933.75,2145.42,952.16,2146.05,976.09Zm-168.56-.21c-.94,22,19.48,41.68,41.28,41.23,23.23-.49,41.43-18.88,41.58-42.48.14-20.27-19.85-40.8-40.72-40.67C1995.85,934.1,1976.41,954.78,1977.49,975.88Zm106.29-180.32c-.05,8.74,6.24,15.12,15,15.15,6.87,0,14-7.5,14.06-14.76,0-7.54-7-15.05-14.08-15.16A14.62,14.62,0,0,0,2083.78,795.56Z" transform="translate(-206.14 -580.33)"/>
    <path class="cls-2" d="M2005.82,891.46c0-3.27.11-6.26,0-9.24s1.35-4.23,4.22-4.22c5.72,0,11.62.89,17.13-.19,7.35-1.44,12.74,1.44,18.55,5a133,133,0,0,0,17.44,8.58c2.29,1,5.45,2,7.18-1.47,1.47-3,.61-6.41-2.61-8.55-3.47-2.3-7.25-4.14-10.87-6.22-5.31-3.06-10.74-6-15.88-9.28-5.65-3.63-10.78-8.15-9.7-15.67a20.2,20.2,0,0,1,4.61-10c9.09-10.24,18.5-20.22,28.11-30,5.39-5.46,13.18-4.94,17.81,1.22a173.5,173.5,0,0,1,11,17.55c5.69,9.85,8.6,11.1,19.67,9.42,7.72-1.18,15.55-1.73,23.36-2.15,6-.32,8.3,4.48,10.69,8.9,1.73,3.19,3.28,6.54,5.48,9.39a7.33,7.33,0,0,0,8.39,2.59c5.6-1.57,10.93-.28,13.5,5.09,4.07,8.54,7.28,17.5,10.66,26.36.17.45-1.46,2.18-2.42,2.36-4.74.88-9.57,1.26-14.31,2.13-21.18,3.87-37.68,14.77-48.73,33.36-2.83,4.77-6.12,6.42-11.83,6.9-10.41.88-17.47-3.48-24.49-10.31a255.89,255.89,0,0,0-26.15-22.28c-9.39-6.93-20.58-9.26-32.22-9.24C2018.42,891.47,2012.44,891.46,2005.82,891.46Zm86.5.34c1.91-.66,4.14-.92,5.68-2.07a76.94,76.94,0,0,0,8.74-7.8c8.6-8.81,16-19.18,29.42-21.45.66-.11,1.6-2.33,1.36-3.32-1.47-6.17-7-9.31-13.44-8.61-8.79.94-17.62,1.49-26.45,2.07-6.06.41-10.13-2.5-12.6-8a65.94,65.94,0,0,0-3.9-7.21c-1.49-2.46-3.25-2.67-5.28-.39q-7.3,8.16-14.75,16.18c-1.46,1.58-1.7,2.82.33,4,3.78,2.3,7.35,5,11.32,6.9,10.85,5.13,13.79,9.88,12.72,21.72C2084.9,890.15,2085.93,891.28,2092.32,891.8Z" transform="translate(-206.14 -580.33)"/>
    <path class="cls-2" d="M2213.67,904c-.07-6.81-4.6-12-9.15-12.67a25.81,25.81,0,0,1-2.66-.66c-3.75-1-5.67-3.4-5.27-6.62a6.64,6.64,0,0,1,7.35-6c6.18.44,11.15,3.36,15.23,7.91a36.62,36.62,0,0,1,9.64,25.75,97.12,97.12,0,0,1-.43,11.33c-.81,6.29-4.28,8.12-9.79,5.49-14.2-6.78-29-10.42-44.73-7.36-25.06,4.87-39.83,24.37-42.75,48.28-.45,3.61-1.56,4.54-5,4.51-14.88-.15-29.77-.24-44.66,0-4.26.08-5.89-1.12-6.49-5.39-1.87-13.28-7-25.11-17.29-34.15-17.07-15-36.45-19.6-58.17-12.08-3.29,1.14-5.7,1.57-8.49-1-1.87-1.72-4.51-2.58-6.74-3.93-6.09-3.68-8.12-8.65-6.81-15.63.45-2.41,1.63-3.47,3.91-3.41q17.8.48,35.59,1c4,.13,8.08.47,12.11.64,11.71.5,21.23,6.15,29.84,13.32a268.81,268.81,0,0,1,20.59,19.2c5.74,5.92,12.31,9,20.52,8.75,5.62-.15,11.23-.15,16.85-.06,2.58,0,4-1,5.07-3.35,8.7-20.07,24.34-32,45.22-36.84,12.71-3,25.63-2.21,38.34,1C2208.09,902.75,2210.69,903.34,2213.67,904Z" transform="translate(-206.14 -580.33)"/>
    <path class="cls-2" d="M2146.05,976.09c-.63-23.93,16.91-42.34,42.91-41.81,22.63.46,39.87,18.67,39.83,42.62,0,20.52-20.74,40.53-40.78,40.28C2164.34,1016.87,2144.88,998.77,2146.05,976.09Z" transform="translate(-206.14 -580.33)"/>
    <path class="cls-2" d="M1977.49,975.88c-1.08-21.1,18.36-41.78,42.14-41.92,20.87-.13,40.86,20.4,40.72,40.67-.15,23.6-18.35,42-41.58,42.48C1997,1017.56,1976.55,997.88,1977.49,975.88Z" transform="translate(-206.14 -580.33)"/>
    <path class="cls-2" d="M2083.78,795.56a14.62,14.62,0,0,1,14.94-14.77c7.13.11,14.11,7.62,14.08,15.16,0,7.26-7.19,14.79-14.06,14.76C2090,810.68,2083.73,804.3,2083.78,795.56Z" transform="translate(-206.14 -580.33)"/>
    <path class="cls-1" d="M2092.32,891.8c-6.39-.52-7.42-1.65-6.85-7.9,1.07-11.84-1.87-16.59-12.72-21.72-4-1.88-7.54-4.6-11.32-6.9-2-1.23-1.79-2.47-.33-4q7.44-8,14.75-16.18c2-2.28,3.79-2.07,5.28.39a65.94,65.94,0,0,1,3.9,7.21c2.47,5.47,6.54,8.38,12.6,8,8.83-.58,17.66-1.13,26.45-2.07,6.46-.7,12,2.44,13.44,8.61.24,1-.7,3.21-1.36,3.32-13.42,2.27-20.82,12.64-29.42,21.45a76.94,76.94,0,0,1-8.74,7.8C2096.46,890.88,2094.23,891.14,2092.32,891.8Z" transform="translate(-206.14 -580.33)"/>
  </g>
  <g>
    <path class="cls-1" d="M574.06,1057.84V750.42h298v307.42ZM699.18,899.1c.42-.9.49-1.36.75-1.57,7.37-6,14.72-12.11,22.22-18,.55-.42,2.66.18,3.22.92a70.85,70.85,0,0,1,4.24,7c3.3,5.6,7.91,8.8,14.72,8.5,5.35-.22,10.71,0,16.07-.09,1.8,0,4,0,5.31-.91,1.9-1.31,4.41-3.48,4.43-5.29s-2.37-4.55-4.32-5.31a22.23,22.23,0,0,0-9.9-1.38c-8.51.79-13.3-2-17.47-9.49a209.61,209.61,0,0,0-14.13-22c-4.38-6-11.91-6.2-17.08-.85-11.07,11.44-22.13,22.91-32.81,34.71-8.39,9.28-6.57,20.2,4.25,26.81,9.46,5.78,19.11,11.27,28.83,16.6,4.65,2.55,6.75,5.82,6.59,11.28-.35,11.75-.19,23.51-.1,35.27,0,6.27,3.24,9.4,9.07,9.32,5.11-.08,6.87-2.37,6.87-9.11,0-16.85-.14-33.71.12-50.56.07-4.74-1.88-7.56-5.66-9.8-4.94-2.93-9.81-6-14.66-9.05C706.16,903.87,702.68,901.44,699.18,899.1Zm-41.82,121.7c27.48.07,47.65-20.59,48.18-48.48.54-28.7-25-48.57-46.74-49-28.41-.55-50.82,21.29-50.8,47.51C608,1000.74,627.67,1020.71,657.36,1020.8Zm129.88,0c27.32,0,48.5-21.58,48.46-49.38,0-25.49-23.57-48.33-48.7-48.19-26.35.14-48.89,22.41-48.61,48.87C738.7,1001.07,759.77,1021,787.24,1020.83ZM760.45,835.07c0-8.39-8.22-16.36-16.72-16.29s-16.4,8-16.41,16.64,7.56,16.45,16,16.59C752.22,852.15,760.49,844,760.45,835.07Z" transform="translate(-206.14 -580.33)"/>
    <path class="cls-2" d="M699.18,899.1c3.5,2.34,7,4.77,10.56,7,4.85,3.08,9.72,6.12,14.66,9.05,3.78,2.24,5.73,5.06,5.66,9.8-.26,16.85-.1,33.71-.12,50.56,0,6.74-1.76,9-6.87,9.11-5.83.08-9-3-9.07-9.32-.09-11.76-.25-23.52.1-35.27.16-5.46-1.94-8.73-6.59-11.28-9.72-5.33-19.37-10.82-28.83-16.6-10.82-6.61-12.64-17.53-4.25-26.81,10.68-11.8,21.74-23.27,32.81-34.71,5.17-5.35,12.7-5.12,17.08.85a209.61,209.61,0,0,1,14.13,22c4.17,7.47,9,10.28,17.47,9.49a22.23,22.23,0,0,1,9.9,1.38c1.95.76,4.33,3.48,4.32,5.31s-2.53,4-4.43,5.29c-1.35.92-3.51.87-5.31.91-5.36.11-10.72-.13-16.07.09-6.81.3-11.42-2.9-14.72-8.5a70.85,70.85,0,0,0-4.24-7c-.56-.74-2.67-1.34-3.22-.92-7.5,5.88-14.85,12-22.22,18C699.67,897.74,699.6,898.2,699.18,899.1Z" transform="translate(-206.14 -580.33)"/>
    <path class="cls-2" d="M657.36,1020.8c-29.69-.09-49.35-20.06-49.36-50,0-26.22,22.39-48.06,50.8-47.51,21.73.42,47.28,20.29,46.74,49C705,1000.21,684.84,1020.87,657.36,1020.8Zm-.53-7.38c23.64-.32,40.89-18.06,41.26-40.94s-18.44-41.74-41.37-41.84c-21.64-.09-40.87,18.61-41,38.54C615.56,997.88,634.59,1012.9,656.83,1013.42Z" transform="translate(-206.14 -580.33)"/>
    <path class="cls-2" d="M787.24,1020.83c-27.47.21-48.54-19.76-48.85-48.7-.28-26.46,22.26-48.73,48.61-48.87,25.13-.14,48.67,22.7,48.7,48.19C835.74,999.25,814.56,1020.82,787.24,1020.83Zm41.17-49.15c.08-21.33-19.42-40.94-40.81-41.06-22.12-.12-41.82,18.8-41.89,40.23-.08,23.77,17.89,42.49,40.89,42.57A41.51,41.51,0,0,0,828.41,971.68Z" transform="translate(-206.14 -580.33)"/>
    <path class="cls-2" d="M760.45,835.07c0,8.9-8.23,17.08-17.1,16.94-8.47-.14-16-8-16-16.59s7.87-16.57,16.41-16.64S760.41,826.68,760.45,835.07Z" transform="translate(-206.14 -580.33)"/>
    <path class="cls-1" d="M656.83,1013.42c-22.24-.52-41.27-15.54-41.1-44.24.12-19.93,19.35-38.63,41-38.54,22.93.1,41.74,18.86,41.37,41.84S680.47,1013.1,656.83,1013.42Z" transform="translate(-206.14 -580.33)"/>
    <path class="cls-1" d="M828.41,971.68a41.51,41.51,0,0,1-41.81,41.74c-23-.08-41-18.8-40.89-42.57.07-21.43,19.77-40.35,41.89-40.23C809,930.74,828.49,950.35,828.41,971.68Z" transform="translate(-206.14 -580.33)"/>
  </g>
  <g>
    <path class="cls-1" d="M1048.65,1035.14V787.59h174.06v247.55ZM1161.76,879.2a76,76,0,0,1,3.42,7,18.25,18.25,0,0,0,8.17,9.55c5.78,3.46,11.53,7,17.34,10.43a56,56,0,0,0,7.89,4.23c4.78,1.86,9.6-1.76,9.69-6.89.06-3.54-2.19-5.49-4.76-7.11-5.87-3.72-11.93-7.14-17.69-11a14,14,0,0,1-4.85-5.64c-3.62-8.33-7-16.77-10.15-25.28-2.55-6.84-7.64-10.11-14.45-11s-12.14,1.41-16,7.18c-5,7.45-10.27,14.74-15.3,22.19s-10.27,14.74-14.71,22.51c-4.3,7.53-2.82,15.9,3.54,21.72a144.07,144.07,0,0,0,14.27,10.85q12.58,8.88,25.38,17.45c3.65,2.45,5.08,5.7,4.32,9.9-1.12,6.18-2.46,12.32-3.52,18.5a153.32,153.32,0,0,0-2.13,15.49c-.23,3.53,1.59,6.94,5.07,7.77,3.77.9,8.32,2.2,11.39-1.6a18.1,18.1,0,0,0,3.38-7.46c2.51-12.08,4.63-24.24,7.07-36.34,1.4-6.87.47-13.17-4.75-18-5.89-5.44-12.29-10.32-18.39-15.53-4.3-3.68-8.49-7.49-12.82-11.33Zm-55,41a9.67,9.67,0,0,0-1,2,108.81,108.81,0,0,0-2,11c-.61,6.76-3.62,11-10.35,13.29-8.74,3-17.18,7-25.64,10.77-7.61,3.43-9.2,11.89-3.26,16.87,3.52,2.95,7.53,2.55,11.51.92q17.76-7.28,35.51-14.6a13.16,13.16,0,0,0,7.6-7.84c1.87-5.11,3.61-10.28,5-15.54a5.61,5.61,0,0,0-1.42-4.78C1117.61,928.09,1112.22,924.3,1106.74,920.22Zm84.09-92.69c0-9-7.52-16.68-16.6-16.38-9.79.31-16.23,7.36-16.18,16.43A16.31,16.31,0,0,0,1174.61,844,16.77,16.77,0,0,0,1190.83,827.53Z" transform="translate(-206.14 -580.33)"/>
    <path class="cls-2" d="M1161.76,879.2l-18.62,27.52c4.33,3.84,8.52,7.65,12.82,11.33,6.1,5.21,12.5,10.09,18.39,15.53,5.22,4.83,6.15,11.13,4.75,18-2.44,12.1-4.56,24.26-7.07,36.34a18.1,18.1,0,0,1-3.38,7.46c-3.07,3.8-7.62,2.5-11.39,1.6-3.48-.83-5.3-4.24-5.07-7.77a153.32,153.32,0,0,1,2.13-15.49c1.06-6.18,2.4-12.32,3.52-18.5.76-4.2-.67-7.45-4.32-9.9q-12.78-8.58-25.38-17.45A144.07,144.07,0,0,1,1113.87,917c-6.36-5.82-7.84-14.19-3.54-21.72,4.44-7.77,9.69-15.08,14.71-22.51s10.27-14.74,15.3-22.19c3.89-5.77,9.31-8.1,16-7.18s11.9,4.2,14.45,11c3.17,8.51,6.53,16.95,10.15,25.28a14,14,0,0,0,4.85,5.64c5.76,3.88,11.82,7.3,17.69,11,2.57,1.62,4.82,3.57,4.76,7.11-.09,5.13-4.91,8.75-9.69,6.89a56,56,0,0,1-7.89-4.23c-5.81-3.44-11.56-7-17.34-10.43a18.25,18.25,0,0,1-8.17-9.55A76,76,0,0,0,1161.76,879.2Z" transform="translate(-206.14 -580.33)"/>
    <path class="cls-2" d="M1106.74,920.22c5.48,4.08,10.87,7.87,15.94,12a5.61,5.61,0,0,1,1.42,4.78c-1.36,5.26-3.1,10.43-5,15.54a13.16,13.16,0,0,1-7.6,7.84q-17.74,7.33-35.51,14.6c-4,1.63-8,2-11.51-.92-5.94-5-4.35-13.44,3.26-16.87,8.46-3.8,16.9-7.74,25.64-10.77,6.73-2.34,9.74-6.53,10.35-13.29a108.81,108.81,0,0,1,2-11A9.67,9.67,0,0,1,1106.74,920.22Z" transform="translate(-206.14 -580.33)"/>
    <path class="cls-2" d="M1190.83,827.53A16.77,16.77,0,0,1,1174.61,844a16.31,16.31,0,0,1-16.56-16.46c0-9.07,6.39-16.12,16.18-16.43C1183.31,810.85,1190.82,818.5,1190.83,827.53Z" transform="translate(-206.14 -580.33)"/>
  </g>
  <g>
    <path class="cls-1" d="M1568.52,1032.83H1384.19V785.38h184.33Zm-134.45-34.19c.71,1.31,1.17,2.26,1.7,3.16,2.94,5,7.08,5.83,11.4,2q9.54-8.37,18.88-17c2.18-2,4.3-2.44,7-1.21,12.06,5.48,24.15,10.89,36.22,16.34,9.74,4.39,19.44,8.88,29.22,13.19,5.87,2.58,11.42-.87,10.31-6.63-.4-2.08-2.66-4.32-4.66-5.49-4.22-2.47-8.84-4.27-13.28-6.37-4.29-2-8.57-4.1-12.85-6.15l.18-1.1a8.11,8.11,0,0,1,2.49-.1c5.87,1.57,11.7,3.28,17.57,4.84,6.27,1.67,10.69-1.95,10-8.13-.4-3.61-3.33-4.79-6.13-5.76-4.93-1.7-9.93-3.27-15-4.58-2.46-.64-3.11-1.93-2.67-4.14.67-3.34,1.38-6.68,2.1-10,.69-3.19,2.53-5,6-5.13,2.57-.08,5.12-.49,7.69-.55,6.06-.15,9.48-3.49,9.84-9.94-2.54-1.21-5.15-2.44-7.74-3.69-8.07-3.89-16.35-7.43-24.14-11.83-3.94-2.24-7-6-10.61-9.27,0,1.14-.06,2.39,0,3.64.39,7.69.76,15.38,1.25,23.06.14,2.16-.77,3.31-2.57,4.29a28,28,0,0,1-14.13,3.64c-11.92-.21-23.84-.63-35.75-.49-4.47,0-6.5-1.81-8.11-5.6-3-7.07-6.36-14-9.68-20.94a60.5,60.5,0,0,0-3.26-5.33c-9.35,8-11,16.89-4.69,26.59,4.07,6.21,9,11.82,14,18.21-5.27,5-11,10.6-16.83,16.1-3.19,3-6.59,5.83-9.65,9-3.29,3.4-3.41,7.26-.71,10.3,2.86,3.23,6.14,3.46,10.25.47C1429.85,1002.48,1431.77,1000.62,1434.07,998.64Z" transform="translate(-206.14 -580.33)"/>
    <path class="cls-2" d="M1434.07,998.64c-2.3,2-4.22,3.84-6.35,5.4-4.11,3-7.39,2.76-10.25-.47-2.7-3-2.58-6.9.71-10.3,3.06-3.15,6.46-6,9.65-9,5.8-5.5,11.56-11,16.83-16.1-5-6.39-10-12-14-18.21-6.35-9.7-4.66-18.57,4.69-26.59a60.5,60.5,0,0,1,3.26,5.33c3.32,6.94,6.67,13.87,9.68,20.94,1.61,3.79,3.64,5.65,8.11,5.6,11.91-.14,23.83.28,35.75.49a28,28,0,0,0,14.13-3.64c1.8-1,2.71-2.13,2.57-4.29-.49-7.68-.86-15.37-1.25-23.06-.07-1.25,0-2.5,0-3.64,3.61,3.23,6.67,7,10.61,9.27,7.79,4.4,16.07,7.94,24.14,11.83,2.59,1.25,5.2,2.48,7.74,3.69-.36,6.45-3.78,9.79-9.84,9.94-2.57.06-5.12.47-7.69.55-3.44.1-5.28,1.94-6,5.13-.72,3.34-1.43,6.68-2.1,10-.44,2.21.21,3.5,2.67,4.14,5,1.31,10,2.88,15,4.58,2.8,1,5.73,2.15,6.13,5.76.69,6.18-3.73,9.8-10,8.13-5.87-1.56-11.7-3.27-17.57-4.84a8.11,8.11,0,0,0-2.49.1l-.18,1.1c4.28,2.05,8.56,4.12,12.85,6.15,4.44,2.1,9.06,3.9,13.28,6.37,2,1.17,4.26,3.41,4.66,5.49,1.11,5.76-4.44,9.21-10.31,6.63-9.78-4.31-19.48-8.8-29.22-13.19-12.07-5.45-24.16-10.86-36.22-16.34-2.69-1.23-4.81-.81-7,1.21q-9.33,8.63-18.88,17c-4.32,3.8-8.46,3-11.4-2C1435.24,1000.9,1434.78,1000,1434.07,998.64Z" transform="translate(-206.14 -580.33)"/>
  </g>
  <g>
    <path class="cls-1" d="M1593.46,785.29h184.38v247.55H1593.46Zm49.91,213.37c.77,1.39,1.29,2.42,1.89,3.41,2.83,4.67,6.88,5.51,11,2,6.32-5.46,12.57-11,18.66-16.76,2.43-2.29,4.63-3,7.75-1.51,11.71,5.47,23.48,10.81,35.24,16.17,9.73,4.43,19.44,8.89,29.22,13.2,5.88,2.6,11.43-.81,10.35-6.57-.39-2.08-2.64-4.34-4.63-5.51-4.22-2.48-8.83-4.27-13.27-6.37s-8.58-4.1-12.87-6.16c0-.36.1-.72.16-1.09a8.26,8.26,0,0,1,2.46-.14c5.87,1.57,11.7,3.28,17.57,4.85,6.28,1.68,10.69-1.9,10-8.09-.38-3.62-3.32-4.81-6.11-5.78-4.93-1.71-9.93-3.27-15-4.58-2.43-.64-3.15-1.89-2.7-4.12q1-5,2.09-10c.69-3.19,2.51-5,6-5.16,2.46-.08,4.91-.5,7.37-.55,6.39-.12,9.74-3.28,10.21-9.94-2.54-1.2-5.12-2.49-7.74-3.67-6.33-2.85-12.78-5.47-19-8.54a42.7,42.7,0,0,1-15.46-12.82,14.41,14.41,0,0,0-.3,3.86c.4,7.69.77,15.38,1.26,23.06.14,2.15-.73,3.33-2.56,4.3a28.21,28.21,0,0,1-14.12,3.68c-11.7-.29-23.41-.66-35.1-.53-4.46.06-6.52-1.77-8.13-5.57-3-7.07-6.37-14-9.68-20.94a59.35,59.35,0,0,0-3.26-5.35c-9.25,7.9-10.8,16.62-4.94,26.35a58.49,58.49,0,0,0,5.19,7.33c2.95,3.58,6.13,7,9.5,10.79-6.1,5.79-12.14,11.55-18.21,17.29-2.88,2.72-6,5.26-8.69,8.11-3.28,3.42-3.41,7.27-.72,10.31,2.86,3.23,6.14,3.46,10.25.47C1639.17,1002.48,1641.08,1000.62,1643.37,998.66Z" transform="translate(-206.14 -580.33)"/>
    <path class="cls-2" d="M1643.37,998.66c-2.29,2-4.2,3.82-6.34,5.38-4.11,3-7.39,2.76-10.25-.47-2.69-3-2.56-6.89.72-10.31,2.74-2.85,5.81-5.39,8.69-8.11,6.07-5.74,12.11-11.5,18.21-17.29-3.37-3.81-6.55-7.21-9.5-10.79a58.49,58.49,0,0,1-5.19-7.33c-5.86-9.73-4.31-18.45,4.94-26.35a59.35,59.35,0,0,1,3.26,5.35c3.31,6.94,6.67,13.87,9.68,20.94,1.61,3.8,3.67,5.63,8.13,5.57,11.69-.13,23.4.24,35.1.53a28.21,28.21,0,0,0,14.12-3.68c1.83-1,2.7-2.15,2.56-4.3-.49-7.68-.86-15.37-1.26-23.06a14.41,14.41,0,0,1,.3-3.86A42.7,42.7,0,0,0,1732,933.7c6.23,3.07,12.68,5.69,19,8.54,2.62,1.18,5.2,2.47,7.74,3.67-.47,6.66-3.82,9.82-10.21,9.94-2.46,0-4.91.47-7.37.55-3.44.11-5.26,2-6,5.16q-1.08,5-2.09,10c-.45,2.23.27,3.48,2.7,4.12,5.05,1.31,10.05,2.87,15,4.58,2.79,1,5.73,2.16,6.11,5.78.65,6.19-3.76,9.77-10,8.09-5.87-1.57-11.7-3.28-17.57-4.85a8.26,8.26,0,0,0-2.46.14c-.06.37-.11.73-.16,1.09q6.43,3.09,12.87,6.16c4.44,2.1,9,3.89,13.27,6.37,2,1.17,4.24,3.43,4.63,5.51,1.08,5.76-4.47,9.17-10.35,6.57-9.78-4.31-19.49-8.77-29.22-13.2-11.76-5.36-23.53-10.7-35.24-16.17-3.12-1.46-5.32-.78-7.75,1.51-6.09,5.73-12.34,11.3-18.66,16.76-4.1,3.54-8.15,2.7-11-2C1644.66,1001.08,1644.14,1000.05,1643.37,998.66Z" transform="translate(-206.14 -580.33)"/>
  </g>
  <polygon class="cls-2" points="993.93 407.84 993.93 333.08 1122.45 407.84 993.93 407.84 993.93 407.84"/>
  <line class="cls-4" x1="995.65" y1="328.48" x2="995.65" y2="421.01"/>
  <line class="cls-4" x1="890.42" y1="425.67" x2="1002.89" y2="425.67"/>
  <path class="cls-4" d="M1209.27,1006l92.82-.54c18.12-.36,12,.9,15.91-1.6s5.66-8,7.43-13.39" transform="translate(-206.14 -580.33)"/>
  <line class="cls-5" x1="1122.59" y1="408.27" x2="1247.04" y2="398.21"/>
  <line class="cls-5" x1="1290.5" y1="389.01" x2="1459.37" y2="390.53"/>
  <line class="cls-5" x1="1100.45" y1="399.89" x2="1246.78" y2="389.01"/>
  <line class="cls-5" x1="1295.39" y1="399.07" x2="1464.25" y2="400.59"/>
</svg>
